PathFileType	4	(X/Y/Z)	26_2_112_p1_0-567_filt_butterworth.trc
DataRate	CameraRate	NumFrames	NumMarkers	Units	OrigDataRate	OrigDataStartFrame	OrigNumFrames
60.0	60.0	7	27	m	60.0	70	567
Frame#	Time	RHip			RKnee			RAnkle			RBigToe			RSmallToe			RHeel			LHip			LKnee			LAnkle			LBigToe			LSmallToe			LHeel			Neck			Head			Nose			RShoulder			RElbow			RWrist			RThumb			RIndex			RPinky			LShoulder			LElbow			LWrist			LThumb			LIndex			LPinky			
		X1	Y1	Z1	X2	Y2	Z2	X3	Y3	Z3	X4	Y4	Z4	X5	Y5	Z5	X6	Y6	Z6	X7	Y7	Z7	X8	Y8	Z8	X9	Y9	Z9	X10	Y10	Z10	X11	Y11	Z11	X12	Y12	Z12	X13	Y13	Z13	X14	Y14	Z14	X15	Y15	Z15	X16	Y16	Z16	X17	Y17	Z17	X18	Y18	Z18	X19	Y19	Z19	X20	Y20	Z20	X21	Y21	Z21	X22	Y22	Z22	X23	Y23	Z23	X24	Y24	Z24	X25	Y25	Z25	X26	Y26	Z26	X27	Y27	Z27	
70	1.1666666666666667	0.2855989852385272	0.7880841725705681	0.8891838325777475	0.24933517932045768	0.917863746248167	1.2504619541824968	0.2294084261947604	1.2029704733466668	1.6380910169849594	0.2028826269072698	0.9142957028598319	1.6600002215874547	0.24920645870581185	1.020000532540747	1.684414027969772	0.23357179707784492	1.2967357916942672	1.6815914476653075	0.06935352998312237	0.8072589136567917	0.8805001824467953	0.0934263964018632	0.9778390084025137	1.2420118463601109	0.12725272738587437	1.27070223978388	1.6442988467813429	0.09890887386022267	0.9842740541818492	1.6697891196469985	0.06199459446334176	1.024437021626893	1.654916417314408	0.13376604147959878	1.3652329784353872	1.6988638581156137	0.20500726369766525	0.5529011832228983	0.306443523205237	0.2274126520047053	0.4004804804003438	0.10501074037277279	0.22128007684048479	0.40763996334753355	0.23426248247739911	0.37519499407904267	0.5902131478052208	0.4172858021263686	0.4138740917573871	0.7240237936431876	0.6662569635644412	0.4120542609411056	0.7843100349105219	0.9242850103090923	0.3437564668972389	0.7491003965198226	1.0406629280451771	0.3544567342760197	0.7720886008765548	1.0544509303065523	0.39051335166437545	0.8052422931721567	1.0488262247986628	0.053505314077530085	0.6030235957941129	0.3726356718025577	-0.03293334771845646	0.7181712315184007	0.6210989792981197	-0.049562648656379805	0.7955926934258886	0.8715032209315687	-0.027055570319523266	0.8117900233959815	0.9697135532668513	-0.04465049465964463	0.8320495586067043	0.9931599821892461	-0.05389550210227438	0.8348413667256922	0.971639803878557
71	1.1833333333333331	0.2867641230733715	0.7918811982949064	0.8889455361927943	0.24963836950820467	0.9177550816301085	1.248696153282996	0.22880139613764824	1.2025204270981624	1.6387519741005974	0.2027346276750418	0.9141388497691909	1.6598715370330832	0.24911683569188348	1.0198143120991063	1.6843274827539085	0.23362785061957428	1.297311504223868	1.6826831929794477	0.06920984322738263	0.8122737036469981	0.8798251230404657	0.09302126006575856	0.9782165152373807	1.2425198210125334	0.12728004484057137	1.2707277708207454	1.6442960279691463	0.09894308628518579	0.9844379427310924	1.669783973771697	0.06192122323075334	1.0250884148537265	1.6548992760367232	0.1337919842420733	1.3655918433591703	1.6989917023186323	0.20505833095378756	0.5525583123491894	0.3074519419705709	0.22226017925832842	0.4008202481087391	0.1057440182152169	0.21992517532314831	0.40929650440436116	0.23651937021005792	0.3751758346033066	0.5901986455873944	0.41733484846165875	0.41568394286233673	0.7258733813111939	0.6665615416970239	0.4121832005866989	0.7834931071735018	0.921409500741009	0.3436758983533562	0.7482282463574266	1.0388132741504073	0.3549621457164909	0.7733706204658493	1.054299061947034	0.39051973397522	0.8080991016142268	1.0478733807601999	0.05361299185781921	0.6032466606805035	0.37469848293321684	-0.033019298960178814	0.7177239175930447	0.621139410568315	-0.049209654149634866	0.7965077420172053	0.8710015386339025	-0.03011140912076406	0.8206505724651251	0.9688224126223142	-0.044541187264309376	0.8376698750777571	0.9918136054907505	-0.05231103497709018	0.8392847069487074	0.9687952244247577
72	1.2	0.2881661035415792	0.7970985955448004	0.8889477483487198	0.24976731520685608	0.9177870562439243	1.248216120617908	0.2280536667610728	1.2008851235992153	1.6390368295771094	0.20269429418347149	0.9145767950559233	1.6601656464492387	0.24902430163905603	1.019657916909933	1.6843540647554822	0.2337334655356026	1.2979215755962723	1.683300327741779	0.06901497223203594	0.8140179809835907	0.8803641005919389	0.09202105341058038	0.9788827819646791	1.2437135961553656	0.12722649930094537	1.270374724478619	1.6442332877262391	0.0989994166827302	0.9847677853895148	1.6697776054073885	0.06188788597618362	1.0255787328380463	1.654760811571212	0.13381595538563093	1.365946757551229	1.699146023795388	0.20512720348418173	0.552429397395313	0.30906509576944924	0.21578618621486773	0.404573942383272	0.10629257085227331	0.21505941502393006	0.4080480526926791	0.2398157349366774	0.3751576041217451	0.5901648345946606	0.4173806583630786	0.41626785035024333	0.7261967231357191	0.6669309537761057	0.41212743632064364	0.7826432973018188	0.9196537937798187	0.3435722379515411	0.7476980776325287	1.0368199053125624	0.3548599662865492	0.7734122759084208	1.0541630710116416	0.39036039432209346	0.8086694863246953	1.0467186386177847	0.0537160176433618	0.6039831900685246	0.3780216513097305	-0.03301605614264293	0.7175885647079185	0.6210764898373354	-0.04842301751106903	0.8004983987810897	0.8710371313314018	-0.03215106868066274	0.8275453038227748	0.9696657126269619	-0.04442866773364762	0.8396265272134333	0.9912733879257394	-0.0518187304550881	0.8414016230902901	0.9677791576184953
73	1.2166666666666666	0.2890699197289153	0.801513426897272	0.8896279537342108	0.24969186871894875	0.9179833094963299	1.2491780024369743	0.2272367315071751	1.1972598676285233	1.6392487755027614	0.20288680835906353	0.9157343316325	1.6612424886902022	0.24902677454200456	1.019615907231242	1.6847591942920779	0.23427726986885664	1.3003644558184295	1.6837290428844953	0.06885278949175923	0.8142702053680535	0.8813851478829111	0.09068401409077166	0.9797246327723732	1.2452572340889567	0.12719153331368227	1.2701610349541421	1.6441907799667044	0.09899957852880287	0.9847576085001977	1.6697220580106689	0.06193667036368433	1.0257164860711554	1.6547734622497352	0.13382704048753577	1.3661373775774768	1.699268919242871	0.20503261903615302	0.5526918277154589	0.31125438835152025	0.20774591884936924	0.4125968486739523	0.1060921405751042	0.2059780067846228	0.400795386509514	0.24382673355433054	0.3751413146403362	0.5901215458809224	0.4174286417162727	0.41621613889930453	0.725918888881776	0.6671340617660546	0.41202019790222766	0.7823014607167926	0.919845018873217	0.3435867612967319	0.7478354150010261	1.035516923882966	0.3546791881671853	0.7732143093626918	1.0540839142915526	0.39017396653490727	0.8082575743043527	1.0458849638207974	0.05377518322856921	0.605386154947728	0.38214662000685884	-0.032691175448611	0.7191512717593941	0.6211333332449054	-0.04738682198735367	0.8062916715645405	0.8715452729537442	-0.03283591942931486	0.8310209579384289	0.9713648301974196	-0.04448739990847195	0.8397186561810241	0.9918543459139231	-0.05183538069621576	0.8422952345183528	0.9683914451657195
74	1.2333333333333334	0.2892423451841489	0.8038578311421226	0.8909265548668235	0.2494588951326742	0.9184319804545551	1.2516038436882502	0.22655208530232918	1.1939018049593415	1.6396796595072085	0.20316413303208414	0.916629243125556	1.6627704974710134	0.24901392571156716	1.0194792488651336	1.6856744956338465	0.2355367789355092	1.3059831715286276	1.6844325853133393	0.06877299124967222	0.8142399383198848	0.8822093283953891	0.08957886506856241	0.9805227329613591	1.246424291450092	0.1271897525705399	1.2700601167072758	1.6441722181800116	0.09869217170272289	0.9832468100825859	1.669462708453958	0.06208314948650484	1.0255838826656773	1.65559521513324	0.13383783970984942	1.3661050683565477	1.6992348809051834	0.20480527704926615	0.5533513460541236	0.3143413022609154	0.19814242626894168	0.4232761490098591	0.1055943719758453	0.19449122637443725	0.38806046654396464	0.24885168400525215	0.3751342757545844	0.5900834776930022	0.41748459268811744	0.4160796238441541	0.7256303863373488	0.6672110430020879	0.4119256708031732	0.7826631573828823	0.9216154096790106	0.3440250107581101	0.7492172550846827	1.0351243897165796	0.3546139207805459	0.7731313284750493	1.0540696195929016	0.390070468380059	0.8079829617524626	1.045595619841564	0.053791954260033165	0.6071329805672276	0.38645072079808707	-0.03187716541992627	0.7233632787590945	0.621772776838048	-0.04653743941356744	0.8111409545077726	0.8723093562552591	-0.03242668687158185	0.8310783192162199	0.972970216609979	-0.044717340411888906	0.8397604424466534	0.9939265595899611	-0.05194883626882565	0.842486529007223	0.9700097314057596
75	1.25	0.28910805961756564	0.8042114311480488	0.8924608253530688	0.24917815842674915	0.9189886199198166	1.2547069404809479	0.2261590379351556	1.1925439010687733	1.6403104198027212	0.20331507882793903	0.9154569516401184	1.6638073936411621	0.24862247642921972	1.0185495592206995	1.6867188254709848	0.23704955016239287	1.3127341644618384	1.6853010564541522	0.06876393191891679	0.8142734210126348	0.8829381905620932	0.08894791746269093	0.9812538772835643	1.2469101250376988	0.12722424867172222	1.2699567756054075	1.6441606617279452	0.09785427542671683	0.9794004978441394	1.668849910797533	0.06222747597949681	1.0252955405780844	1.6575861487988608	0.13387099942201283	1.3659410585337162	1.698809464467489	0.2045775809337338	0.5542332156601139	0.31827244049764	0.18746988337880024	0.4318635167136689	0.10604065309912471	0.1842240642663573	0.3746996218932711	0.2542997110657914	0.37514818306340963	0.5900667480078003	0.41755551775182287	0.41604435918105886	0.7254841610662517	0.6672328356798878	0.41196882378106237	0.7839347262517624	0.9239900229850015	0.345088667727828	0.7521355086902606	1.0353841192162985	0.35465836898090547	0.773144218673047	1.0541262162215885	0.39006276496836007	0.808118873038949	1.0456682847707948	0.05378683600317008	0.6086002255421273	0.39018499065755063	-0.030810277752070944	0.7289701171908615	0.6231514142827195	-0.046122467335569114	0.8136112540385415	0.8730769725818495	-0.031103852160669312	0.8274671580635035	0.9742443721784827	-0.044939270474881506	0.8402518345801032	0.9977083496253865	-0.051979073856313736	0.8421962890602704	0.9723178206861013
76	1.2666666666666666	0.28928913434658127	0.8024156834344839	0.89414757926198	0.24898550343326797	0.9193419283790772	1.2570789132220743	0.2259031455105572	1.1927337211470321	1.6408575196030408	0.20332272506123714	0.9113573461718356	1.6638583120680248	0.24765583779598033	1.016210056061212	1.6872461358925372	0.23775729702735904	1.3158264359010488	1.6857354485485099	0.06879532173123933	0.8143825342289313	0.8840281546263644	0.08864423190078673	0.9819070618753614	1.2470614154942383	0.12727637972262046	1.2698663025922983	1.644155446146611	0.09670643814511914	0.974373755083952	1.6680653075426084	0.062067954262351566	1.0253029328161736	1.6601488030148897	0.13393509043354418	1.365785525178854	1.6978827856237915	0.20444413899831976	0.5550194346051673	0.3222442843125973	0.1766800686118944	0.43360747680661565	0.1085968288236197	0.17767827092094018	0.36564825153807856	0.2590475623835437	0.3751836955593559	0.5900602003068184	0.4176542658387081	0.4160831482507273	0.7254416498932964	0.6672370013767398	0.4124047373545406	0.7858959477910857	0.9260462236599614	0.34647002222602885	0.755669512877531	1.0361478967138862	0.3547540612700666	0.7731674001334168	1.0542709254938916	0.3901166823129465	0.8084803517917821	1.0458561539820637	0.05377101180507579	0.6095516348587409	0.3933064495141023	-0.0300707223863694	0.7330880653688279	0.6254105613562181	-0.046006512571906785	0.8145733321427207	0.8742228737085869	-0.028891620181967295	0.8205476860103296	0.975970718059622	-0.04479555703296934	0.8405999090830023	1.0030995730304335	-0.05183990462611583	0.8422447668015958	0.9757709149301081
